# xmcd
#
# Track frame offsets:
#	150
#	14377
#	29592
#	43165
#	56552
#	72197
#	87337
#	102795
#	116892
#	132570
#
# Disc length: 1976 seconds
#
# Revision: 0
# Processed by: cddbd v1.5.2PL0 Copyright (c) Steve Scherf et al.
# Submitted via: audiograbber 1.83.01
#
DISCID=8e07b60a
DTITLE=Tammy Wynette - Higher Ground
DYEAR=1987
DGENRE=Country
TTITLE0=Your Love
TTITLE1=Tempted
TTITLE2=Some Things Will Never Change
TTITLE3=Beneath A Painted Sky
TTITLE4=I Wasn't Meant To Live My Life Alone
TTITLE5=Higher Ground
TTITLE6=Talkin' To Myself Again
TTITLE7=A Slow Burning Fire
TTITLE8=There's No Heart So Strong
TTITLE9=All Through Throwing Good Love After Bad
EXTD=
EXTT0=With Ricky Skaggs
EXTT1=With Gene Watson
EXTT2=With Vern Gosdin
EXTT3=With Emmylou Harris
EXTT4=With Vince Gill
EXTT5=With Larry, Steve, Rudy Gatlin
EXTT6=With The O'kanes
EXTT7=With Dennis Wilson, Harry Stinson, John Wesley Ryles, Ricky Van Shelton
EXTT8=With Paul Overstreet
EXTT9=With Rodney Crowell, Jeannie Smith
PLAYORDER=
